#Comment line ignore any data following # character 
#Hierarchical Translation and Rotation (.htr) file 
[Header]	
#Header keywords are followed by a single value 
FileType HTR		#Single word string
DataType HTRS		#Translation followed by rotation and scale data
FileVersion 1		#integer
NumSegments 84		#integer
NumFrames 2		#integer
DataFrameRate 30		#integer, data frame rate in this file
EulerRotationOrder ZYX
CalibrationUnits mm
RotationUnits Degrees
GlobalAxisofGravity Y
BoneLengthAxis Y
ScaleFactor 1.00
[SegmentNames&Hierarchy]
#CHILD	PARENT
MASTER GLOBAL
root MASTER
chest root
L_mid_tent01 root
R_mid_tent01 root
spine01 root
Bip01_Neck chest
L_humerus chest
R_humerus chest
weapon_bone chest
Bip01_Head Bip01_Neck
eye_left_bone Bip01_Head
eye_right_bone Bip01_Head
L_forearm L_humerus
L_front_hand L_forearm
L_weapon_bone L_forearm
L_front_hand01_01 L_front_hand
L_front_hand02_01 L_front_hand
L_front_hand03_01 L_front_hand
L_front_hand01_02 L_front_hand01_01
L_front_hand02_02 L_front_hand02_01
L_front_hand03_02 L_front_hand03_01
R_forearm R_humerus
R_front_hand R_forearm
R_weapon_bone R_forearm
R_front_hand01_01 R_front_hand
R_front_hand02_01 R_front_hand
R_front_hand03_01 R_front_hand
R_front_hand01_02 R_front_hand01_01
R_front_hand02_02 R_front_hand02_01
R_front_hand03_02 R_front_hand03_01
null_rope01_connect L_mid_tent01
Rope1_Seg01 null_rope01_connect
Rope1_Seg02 Rope1_Seg01
Rope1_Seg03 Rope1_Seg02
Rope1_Seg04 Rope1_Seg03
Rope1_Seg05 Rope1_Seg04
Rope1_Seg06 Rope1_Seg05
Rope1_Seg07 Rope1_Seg06
Rope1_Seg09 Rope1_Seg07
L_mid_hand01 Rope1_Seg09
L_mid_hand02 Rope1_Seg09
L_mid_hand03 Rope1_Seg09
null_rope02_connect R_mid_tent01
Rope2_Seg01 null_rope02_connect
Rope2_Seg02 Rope2_Seg01
Rope2_Seg03 Rope2_Seg02
Rope2_Seg04 Rope2_Seg03
Rope2_Seg05 Rope2_Seg04
Rope2_Seg06 Rope2_Seg05
Rope2_Seg07 Rope2_Seg06
Rope2_Seg09 Rope2_Seg07
R_mid_hand01 Rope2_Seg09
R_mid_hand02 Rope2_Seg09
R_mid_hand03 Rope2_Seg09
spine02 spine01
spine03 spine02
pelvis spine03
null_rope03_connect pelvis
null_rope04_connect pelvis
Rope3_Seg01 null_rope03_connect
Rope3_Seg02 Rope3_Seg01
Rope3_Seg03 Rope3_Seg02
Rope3_Seg04 Rope3_Seg03
Rope3_Seg05 Rope3_Seg04
Rope3_Seg06 Rope3_Seg05
Rope3_Seg07 Rope3_Seg06
Rope3_Seg08 Rope3_Seg07
Rope3_Seg09 Rope3_Seg08
R_rear_hand01 Rope3_Seg09
R_rear_hand02 Rope3_Seg09
R_rear_hand03 Rope3_Seg09
Rope4_Seg01 null_rope04_connect
Rope4_Seg02 Rope4_Seg01
Rope4_Seg03 Rope4_Seg02
Rope4_Seg04 Rope4_Seg03
Rope4_Seg05 Rope4_Seg04
Rope4_Seg06 Rope4_Seg05
Rope4_Seg07 Rope4_Seg06
Rope4_Seg08 Rope4_Seg07
Rope4_Seg09 Rope4_Seg08
L_rear_hand01 Rope4_Seg09
L_rear_hand02 Rope4_Seg09
L_rear_hand03 Rope4_Seg09
[BasePosition]
#SegmentName Tx, Ty, Tz, Rx, Ry, Rz, BoneLength
MASTER 0.000000 0.000000 0.000000 -90.000000 0.000000 0.000000 10.000000 
root 0.000000 0.000000 0.000000 0.000000 0.000000 0.000000 10.000000 
chest 0.000000 0.000000 0.000000 0.000000 0.000000 0.000000 10.000000 
L_mid_tent01 0.000000 0.000000 0.000000 0.000000 0.000000 0.000000 10.000000 
R_mid_tent01 0.000000 0.000000 0.000000 0.000000 0.000000 0.000000 10.000000 
spine01 0.000000 0.000000 0.000000 0.000000 0.000000 0.000000 10.000000 
Bip01_Neck 0.000000 0.000000 0.000000 0.000000 0.000000 0.000000 10.000000 
L_humerus 0.000000 0.000000 0.000000 0.000000 0.000000 0.000000 10.000000 
R_humerus 0.000000 0.000000 0.000000 0.000000 0.000000 0.000000 10.000000 
weapon_bone 0.000000 0.000000 0.000000 0.000000 0.000000 0.000000 10.000000 
Bip01_Head 0.000000 0.000000 0.000000 0.000000 0.000000 0.000000 10.000000 
eye_left_bone 0.000000 0.000000 0.000000 0.000000 0.000000 0.000000 10.000000 
eye_right_bone 0.000000 0.000000 0.000000 0.000000 0.000000 0.000000 10.000000 
L_forearm 0.000000 0.000000 0.000000 0.000000 0.000000 0.000000 10.000000 
L_front_hand 0.000000 0.000000 0.000000 0.000000 0.000000 0.000000 10.000000 
L_weapon_bone 0.000000 0.000000 0.000000 0.000000 0.000000 0.000000 10.000000 
L_front_hand01_01 0.000000 0.000000 0.000000 0.000000 0.000000 0.000000 10.000000 
L_front_hand02_01 0.000000 0.000000 0.000000 0.000000 0.000000 0.000000 10.000000 
L_front_hand03_01 0.000000 0.000000 0.000000 0.000000 0.000000 0.000000 10.000000 
L_front_hand01_02 0.000000 0.000000 0.000000 0.000000 0.000000 0.000000 10.000000 
L_front_hand02_02 0.000000 0.000000 0.000000 0.000000 0.000000 0.000000 10.000000 
L_front_hand03_02 0.000000 0.000000 0.000000 0.000000 0.000000 0.000000 10.000000 
R_forearm 0.000000 0.000000 0.000000 0.000000 0.000000 0.000000 10.000000 
R_front_hand 0.000000 0.000000 0.000000 0.000000 0.000000 0.000000 10.000000 
R_weapon_bone 0.000000 0.000000 0.000000 0.000000 0.000000 0.000000 10.000000 
R_front_hand01_01 0.000000 0.000000 0.000000 0.000000 0.000000 0.000000 10.000000 
R_front_hand02_01 0.000000 0.000000 0.000000 0.000000 0.000000 0.000000 10.000000 
R_front_hand03_01 0.000000 0.000000 0.000000 0.000000 0.000000 0.000000 10.000000 
R_front_hand01_02 0.000000 0.000000 0.000000 0.000000 0.000000 0.000000 10.000000 
R_front_hand02_02 0.000000 0.000000 0.000000 0.000000 0.000000 0.000000 10.000000 
R_front_hand03_02 0.000000 0.000000 0.000000 0.000000 0.000000 0.000000 10.000000 
null_rope01_connect 0.000000 0.000000 0.000000 0.000000 0.000000 0.000000 10.000000 
Rope1_Seg01 0.000000 0.000000 0.000000 0.000000 0.000000 0.000000 10.000000 
Rope1_Seg02 0.000000 0.000000 0.000000 0.000000 0.000000 0.000000 10.000000 
Rope1_Seg03 0.000000 0.000000 0.000000 0.000000 0.000000 0.000000 10.000000 
Rope1_Seg04 0.000000 0.000000 0.000000 0.000000 0.000000 0.000000 10.000000 
Rope1_Seg05 0.000000 0.000000 0.000000 0.000000 0.000000 0.000000 10.000000 
Rope1_Seg06 0.000000 0.000000 0.000000 0.000000 0.000000 0.000000 10.000000 
Rope1_Seg07 0.000000 0.000000 0.000000 0.000000 0.000000 0.000000 10.000000 
Rope1_Seg09 0.000000 0.000000 0.000000 0.000000 0.000000 0.000000 10.000000 
L_mid_hand01 0.000000 0.000000 0.000000 0.000000 0.000000 0.000000 10.000000 
L_mid_hand02 0.000000 0.000000 0.000000 0.000000 0.000000 0.000000 10.000000 
L_mid_hand03 0.000000 0.000000 0.000000 0.000000 0.000000 0.000000 10.000000 
null_rope02_connect 0.000000 0.000000 0.000000 0.000000 0.000000 0.000000 10.000000 
Rope2_Seg01 0.000000 0.000000 0.000000 0.000000 0.000000 0.000000 10.000000 
Rope2_Seg02 0.000000 0.000000 0.000000 0.000000 0.000000 0.000000 10.000000 
Rope2_Seg03 0.000000 0.000000 0.000000 0.000000 0.000000 0.000000 10.000000 
Rope2_Seg04 0.000000 0.000000 0.000000 0.000000 0.000000 0.000000 10.000000 
Rope2_Seg05 0.000000 0.000000 0.000000 0.000000 0.000000 0.000000 10.000000 
Rope2_Seg06 0.000000 0.000000 0.000000 0.000000 0.000000 0.000000 10.000000 
Rope2_Seg07 0.000000 0.000000 0.000000 0.000000 0.000000 0.000000 10.000000 
Rope2_Seg09 0.000000 0.000000 0.000000 0.000000 0.000000 0.000000 10.000000 
R_mid_hand01 0.000000 0.000000 0.000000 0.000000 0.000000 0.000000 10.000000 
R_mid_hand02 0.000000 0.000000 0.000000 0.000000 0.000000 0.000000 10.000000 
R_mid_hand03 0.000000 0.000000 0.000000 0.000000 0.000000 0.000000 10.000000 
spine02 0.000000 0.000000 0.000000 0.000000 0.000000 0.000000 10.000000 
spine03 0.000000 0.000000 0.000000 0.000000 0.000000 0.000000 10.000000 
pelvis 0.000000 0.000000 0.000000 0.000000 0.000000 0.000000 10.000000 
null_rope03_connect 0.000000 0.000000 0.000000 0.000000 0.000000 0.000000 10.000000 
null_rope04_connect 0.000000 0.000000 0.000000 0.000000 0.000000 0.000000 10.000000 
Rope3_Seg01 0.000000 0.000000 0.000000 0.000000 0.000000 0.000000 10.000000 
Rope3_Seg02 0.000000 0.000000 0.000000 0.000000 0.000000 0.000000 10.000000 
Rope3_Seg03 0.000000 0.000000 0.000000 0.000000 0.000000 0.000000 10.000000 
Rope3_Seg04 0.000000 0.000000 0.000000 0.000000 0.000000 0.000000 10.000000 
Rope3_Seg05 0.000000 0.000000 0.000000 0.000000 0.000000 0.000000 10.000000 
Rope3_Seg06 0.000000 0.000000 0.000000 0.000000 0.000000 0.000000 10.000000 
Rope3_Seg07 0.000000 0.000000 0.000000 0.000000 0.000000 0.000000 10.000000 
Rope3_Seg08 0.000000 0.000000 0.000000 0.000000 0.000000 0.000000 10.000000 
Rope3_Seg09 0.000000 0.000000 0.000000 0.000000 0.000000 0.000000 10.000000 
R_rear_hand01 0.000000 0.000000 0.000000 0.000000 0.000000 0.000000 10.000000 
R_rear_hand02 0.000000 0.000000 0.000000 0.000000 0.000000 0.000000 10.000000 
R_rear_hand03 0.000000 0.000000 0.000000 0.000000 0.000000 0.000000 10.000000 
Rope4_Seg01 0.000000 0.000000 0.000000 0.000000 0.000000 0.000000 10.000000 
Rope4_Seg02 0.000000 0.000000 0.000000 0.000000 0.000000 0.000000 10.000000 
Rope4_Seg03 0.000000 0.000000 0.000000 0.000000 0.000000 0.000000 10.000000 
Rope4_Seg04 0.000000 0.000000 0.000000 0.000000 0.000000 0.000000 10.000000 
Rope4_Seg05 0.000000 0.000000 0.000000 0.000000 0.000000 0.000000 10.000000 
Rope4_Seg06 0.000000 0.000000 0.000000 0.000000 0.000000 0.000000 10.000000 
Rope4_Seg07 0.000000 0.000000 0.000000 0.000000 0.000000 0.000000 10.000000 
Rope4_Seg08 0.000000 0.000000 0.000000 0.000000 0.000000 0.000000 10.000000 
Rope4_Seg09 0.000000 0.000000 0.000000 0.000000 0.000000 0.000000 10.000000 
L_rear_hand01 0.000000 0.000000 0.000000 0.000000 0.000000 0.000000 10.000000 
L_rear_hand02 0.000000 0.000000 0.000000 0.000000 0.000000 0.000000 10.000000 
L_rear_hand03 0.000000 0.000000 0.000000 0.000000 0.000000 0.000000 10.000000 
#Beginning of Data. Separated by tabs
#Fr	Tx	Ty	Tz	Rx	Ry	Rz	SF
[MASTER]
24 1343.918091 3945.495117 1373.615845 0.001660 0.001660 0.001660 4388.606445
25 1681.644165 4096.061035 1269.272949 0.001660 0.001660 0.001660 4606.158691
[root]
24 -16.501923 -248.837891 598.074890 -176.807007 -1.507410 -79.637901 647.986267
25 -16.083834 -223.343277 661.514832 -166.869232 -3.594105 -79.223419 698.385864
[chest]
24 -84.512650 -34.090519 0.000000 -59.328609 -29.156664 -168.224487 91.129311
25 -84.512650 -34.090519 0.000000 -58.917076 -29.028290 -170.021118 91.129311
[L_mid_tent01]
24 27.298832 22.179258 -249.918686 -10.484755 27.222494 21.377232 252.381653
25 27.298820 22.179258 -249.918701 -14.840934 25.423306 -2.464328 252.381668
[R_mid_tent01]
24 23.228794 24.509907 226.238495 163.587921 18.404776 68.006668 228.744751
25 23.228794 24.509907 226.238495 163.950165 13.990565 70.722809 228.744751
[spine01]
24 -0.361383 -0.195265 0.000000 0.001955 0.001299 22.774525 0.410763
25 -0.361383 -0.195265 0.000000 0.001954 0.001300 22.740051 0.410763
[Bip01_Neck]
24 165.484543 71.581718 0.000119 176.643677 -1.657967 43.431911 180.302734
25 165.484543 71.581718 0.000119 176.643677 -1.657967 43.431911 180.302734
[L_humerus]
24 -13.983130 -135.272980 -120.471481 172.755707 -1.330986 -94.386551 181.680161
25 -13.983130 -135.272980 -120.471481 173.314911 -3.078251 -93.533081 181.680161
[R_humerus]
24 -13.983309 -135.273102 125.287651 -177.010178 4.487582 -85.310364 184.909012
25 -13.983309 -135.273102 125.287651 -177.001480 6.076458 -85.221565 184.909012
[weapon_bone]
24 235.964890 -300.705902 0.000000 0.000000 -89.951546 -128.212341 382.234833
25 235.964890 -300.705902 0.000000 0.000000 -89.951546 -128.212341 382.234833
[Bip01_Head]
24 213.358002 185.956299 8.671711 18.223381 6.152122 -43.833611 283.154694
25 213.364243 185.938873 8.896292 18.223381 6.152122 -43.833611 283.154938
[eye_left_bone]
24 -24.626970 125.451866 -64.772606 0.000000 -90.000000 -99.840431 143.318359
25 -24.626970 125.451866 -64.772606 0.000000 -90.000000 -99.840431 143.318359
[eye_right_bone]
24 -24.626970 125.451866 64.327362 0.000000 -89.965736 80.156380 143.117676
25 -24.626970 125.451866 64.327362 0.000000 -89.965736 80.156380 143.117676
[L_forearm]
24 322.776093 0.000000 -0.000119 0.000427 -0.002308 -110.947762 322.776093
25 322.776093 0.000000 -0.000119 0.000425 -0.002308 -110.885742 322.776093
[L_front_hand]
24 241.149185 -0.042021 -3.300071 -178.667953 -1.835447 -27.422342 241.171753
25 241.149185 -0.042021 -3.300071 -178.667953 -1.835447 -27.422342 241.171753
[L_weapon_bone]
24 156.183838 0.000000 0.000000 0.000014 0.000007 0.000001 156.183838
25 156.183838 0.000000 0.000000 0.000014 0.000007 0.000001 156.183838
[L_front_hand01_01]
24 86.095154 20.947098 -0.655860 -0.366594 -0.477154 75.385574 88.609184
25 86.095154 20.947098 -0.655860 -0.366594 -0.477154 75.385574 88.609184
[L_front_hand02_01]
24 86.935165 -11.437475 24.513514 154.399796 -59.883835 -61.369587 91.046425
25 86.935165 -11.437475 24.513514 154.399796 -59.883835 -61.369587 91.046425
[L_front_hand03_01]
24 86.637497 -14.123976 -20.424902 -153.913849 58.118122 -62.702866 90.126129
25 86.637497 -14.123976 -20.424902 -153.913849 58.118122 -62.702866 90.126129
[L_front_hand01_02]
24 71.020905 -0.000179 0.000030 0.000332 -0.002324 -106.268463 71.020905
25 71.020905 -0.000179 0.000030 0.000333 -0.002323 -106.330261 71.020905
[L_front_hand02_02]
24 71.020927 -0.000119 0.000060 0.000332 -0.002324 -106.268463 71.020927
25 71.020927 -0.000119 0.000060 0.000333 -0.002323 -106.330261 71.020927
[L_front_hand03_02]
24 71.020905 -0.000060 0.000060 0.000332 -0.002324 -106.268463 71.020905
25 71.020905 -0.000060 0.000060 0.000333 -0.002323 -106.330261 71.020905
[R_forearm]
24 322.776428 -0.000060 0.000030 0.201209 0.067868 -109.602859 322.776428
25 322.776428 -0.000060 0.000030 0.201251 0.067743 -109.531708 322.776428
[R_front_hand]
24 238.847015 -0.006795 2.210259 -2.635298 -10.645461 -26.312506 238.857239
25 238.847015 -0.006795 2.210259 -2.635298 -10.645461 -26.312506 238.857239
[R_weapon_bone]
24 155.664093 0.002503 -0.000030 0.003487 0.001180 -90.988930 155.664078
25 155.664093 0.002503 -0.000030 0.003487 0.001180 -90.988930 155.664078
[R_front_hand01_01]
24 87.624611 14.231146 22.918642 -154.633499 -59.950619 61.746044 91.683487
25 87.624611 14.231146 22.918642 -154.633499 -59.950619 61.746059 91.683487
[R_front_hand02_01]
24 89.356956 14.367283 -19.491137 154.602661 58.302856 63.744389 92.579636
25 89.356956 14.367283 -19.491137 154.602661 58.302849 63.744389 92.579636
[R_front_hand03_01]
24 87.286232 -22.307278 -0.143439 0.162155 -0.423168 -75.767921 90.091743
25 87.286232 -22.307278 -0.143439 0.162155 -0.423168 -75.767921 90.091743
[R_front_hand01_02]
24 71.020905 0.000060 0.000119 0.002323 -0.000334 106.381714 71.020905
25 71.020905 0.000060 0.000119 0.002323 -0.000334 106.381714 71.020905
[R_front_hand02_02]
24 71.020844 -0.000030 -0.000119 0.002323 -0.000334 106.381714 71.020836
25 71.020844 -0.000030 -0.000119 0.002323 -0.000334 106.381714 71.020836
[R_front_hand03_02]
24 71.020905 0.000000 0.000030 0.002323 -0.000334 106.381714 71.020905
25 71.020905 0.000000 0.000030 0.002323 -0.000334 106.381714 71.020905
[null_rope01_connect]
24 328.732483 0.000000 -0.000238 -154.485916 12.241278 -101.605293 328.732483
25 328.732483 0.000000 -0.000238 -151.315445 -3.270792 -83.979294 328.732483
[Rope1_Seg01]
24 0.000000 0.000000 0.000000 -30.235731 -24.373325 -172.083496 0.000000
25 0.000000 0.000000 0.000000 -27.679932 -21.735159 -173.192200 0.000000
[Rope1_Seg02]
24 139.999863 -0.000179 0.000000 -14.434013 -17.328407 5.323791 139.999863
25 139.999863 -0.000179 0.000000 -24.938457 -25.201830 4.702662 139.999863
[Rope1_Seg03]
24 139.999924 0.000060 -0.000060 -49.438534 -29.396612 -7.608202 139.999924
25 139.999924 0.000060 -0.000060 -45.238232 -30.598709 -19.434587 139.999924
[Rope1_Seg04]
24 139.999924 -0.000060 -0.000119 -29.088491 -16.012661 -6.372797 139.999924
25 139.999924 -0.000060 -0.000119 -14.372746 -8.647299 -13.562480 139.999924
[Rope1_Seg05]
24 139.999832 0.000119 -0.000060 -92.201157 -30.207088 13.314753 139.999832
25 139.999832 0.000119 -0.000060 -40.239059 -33.071228 5.409303 139.999832
[Rope1_Seg06]
24 139.999954 0.000119 -0.000060 -26.284536 -3.530080 -12.152929 139.999954
25 139.999954 0.000119 -0.000060 -39.626362 -21.077770 -12.698711 139.999954
[Rope1_Seg07]
24 139.999985 0.000060 0.000000 -5.591557 1.397976 -6.026463 139.999985
25 139.999985 0.000060 0.000000 -9.545124 -1.957986 -9.082148 139.999985
[Rope1_Seg09]
24 121.602913 0.000119 -0.000089 -89.793175 -1.359789 0.847147 121.602913
25 121.602913 0.000119 -0.000089 -89.793175 -1.359789 0.847147 121.602913
[L_mid_hand01]
24 103.859421 1.038730 8.195221 130.544342 -67.584518 -38.866936 104.187431
25 103.859421 1.038730 8.195221 130.544357 -67.584526 -38.866943 104.187431
[L_mid_hand02]
24 105.572853 -4.139662 -10.864139 -168.923172 43.409309 -73.498886 106.211075
25 105.572853 -4.139662 -10.864139 -168.923172 43.409309 -73.498894 106.211075
[L_mid_hand03]
24 104.641464 17.579376 -3.913581 -6.012628 17.808174 74.893669 106.179977
25 104.641464 17.579376 -3.913581 -6.012626 17.808172 74.893661 106.179977
[null_rope02_connect]
24 328.732849 0.000179 -0.000119 -3.779784 -20.618095 151.023926 328.732849
25 328.732849 0.000179 -0.000119 -5.974956 -6.431922 151.192474 328.732849
[Rope2_Seg01]
24 0.000057 0.000076 0.000000 -82.153587 62.299576 -160.726761 0.000095
25 0.000058 0.000073 0.000000 -98.912552 78.468109 -169.572647 0.000093
[Rope2_Seg02]
24 139.999741 -0.000060 -0.000119 11.274313 -11.656607 -16.171671 139.999756
25 139.999741 -0.000060 -0.000119 4.459094 -3.512292 -8.138738 139.999756
[Rope2_Seg03]
24 140.000107 0.000030 0.000000 15.819635 -24.280428 -27.845682 140.000107
25 140.000107 0.000030 0.000000 8.861222 -7.944128 -15.449102 140.000107
[Rope2_Seg04]
24 139.999802 0.000000 -0.000060 4.154072 -22.079834 -18.333105 139.999802
25 139.999802 0.000000 -0.000060 16.804657 -15.557161 -30.797682 139.999802
[Rope2_Seg05]
24 139.999985 -0.000060 0.000119 -1.491166 -14.488959 -3.913029 139.999985
25 139.999985 -0.000060 0.000119 7.969584 -20.086185 -19.056747 139.999985
[Rope2_Seg06]
24 139.999893 -0.000030 -0.000119 -2.290524 -11.642908 -0.729412 139.999893
25 139.999893 -0.000030 -0.000119 -0.841366 -20.654762 0.019271 139.999893
[Rope2_Seg07]
24 139.999893 0.000060 -0.000060 -2.440455 -6.337796 -1.795500 139.999893
25 139.999893 0.000060 -0.000060 -2.700801 -16.013868 0.676389 139.999893
[Rope2_Seg09]
24 121.338966 0.000089 -0.000060 33.793236 -1.359788 -0.847141 121.338966
25 121.338966 0.000089 -0.000060 33.793236 -1.359788 -0.847141 121.338966
[R_mid_hand01]
24 104.680779 11.144459 -10.335981 -21.077984 43.559654 63.514442 105.778534
25 104.680779 11.144459 -10.335981 -18.585447 44.487877 67.094727 105.778534
[R_mid_hand02]
24 104.070427 2.443552 8.231699 56.113041 -63.580776 31.561979 104.424065
25 104.070427 2.443552 8.231699 52.755104 -65.811348 35.278667 104.424065
[R_mid_hand03]
24 106.028137 -11.221827 -5.996406 -175.658295 15.220736 -71.161552 106.788818
25 106.028137 -11.221827 -5.996406 -176.406250 15.411086 -73.996964 106.788818
[spine02]
24 129.756927 0.001550 0.000119 0.514919 -4.026917 -15.125953 129.756927
25 129.756927 0.001550 0.000119 0.508422 -4.027755 -15.034198 129.756927
[spine03]
24 78.614029 0.081740 -4.898998 1.989195 3.785806 17.856686 78.766563
25 78.614029 0.081739 -4.898998 1.984095 3.788462 17.786448 78.766563
[pelvis]
24 169.435242 0.051022 0.000000 -13.434932 -0.359203 -12.159890 169.435257
25 169.435242 0.051022 0.000000 -24.548006 -0.572022 -12.487092 169.435257
[null_rope03_connect]
24 -1.257226 -2.466202 137.391083 179.980286 8.731470 -92.968910 137.418976
25 -1.257226 -2.466202 137.391083 179.780731 9.709278 -91.796227 137.418976
[null_rope04_connect]
24 -1.259640 -2.480268 -137.844437 179.980286 8.731470 -92.968910 137.872513
25 -1.259640 -2.480268 -137.844437 179.780731 9.709278 -91.796227 137.872513
[Rope3_Seg01]
24 0.000000 0.000000 0.000000 40.252285 -41.796825 -106.863823 0.000000
25 0.000000 0.000000 0.000000 41.358414 -47.207951 -104.069656 0.000000
[Rope3_Seg02]
24 139.999924 -0.000119 0.000060 -5.612966 8.653646 -3.353456 139.999924
25 139.999924 -0.000119 0.000060 -7.571003 19.305550 -1.368295 139.999924
[Rope3_Seg03]
24 139.999924 -0.000119 0.000119 -8.122039 15.224864 -4.437422 139.999924
25 139.999924 -0.000119 0.000119 -4.695852 26.257900 -0.865439 139.999924
[Rope3_Seg04]
24 139.999924 0.000119 0.000000 -1.870606 4.795955 -0.616312 139.999924
25 139.999924 0.000119 0.000000 0.869671 15.603608 4.000374 139.999924
[Rope3_Seg05]
24 139.999924 -0.000238 0.000060 8.838873 -20.073933 2.696576 139.999924
25 139.999924 -0.000238 0.000060 0.190034 6.851682 16.078684 139.999924
[Rope3_Seg06]
24 139.999893 -0.000119 -0.000060 8.211545 -13.453410 4.145624 139.999893
25 139.999893 -0.000119 -0.000060 1.817525 11.372508 18.825583 139.999893
[Rope3_Seg07]
24 139.999771 0.000060 -0.000119 4.757759 -6.185216 2.967031 139.999771
25 139.999771 0.000060 -0.000119 1.059126 6.649879 10.043712 139.999771
[Rope3_Seg08]
24 139.999985 -0.000060 0.000000 0.688925 -0.201844 0.119146 139.999985
25 139.999985 -0.000060 0.000000 0.535645 0.610765 0.894769 139.999985
[Rope3_Seg09]
24 90.185997 -0.000179 -0.000060 89.793228 -1.359877 -0.847183 90.185997
25 90.185997 -0.000179 -0.000060 89.793228 -1.359877 -0.847183 90.185997
[R_rear_hand01]
24 103.366196 -6.073594 -10.757982 -175.487595 24.273657 -68.532669 104.101845
25 103.366196 -6.073594 -10.757982 -176.652313 24.449368 -71.361511 104.101845
[R_rear_hand02]
24 100.509819 12.039542 -7.992327 -16.360683 35.627853 66.274040 101.543350
25 100.509819 12.039542 -7.992327 -14.552666 36.319756 69.354660 101.543350
[R_rear_hand03]
24 101.539970 5.215704 5.435467 75.232674 -67.112511 17.511564 101.819031
25 101.539970 5.215704 5.435467 73.490227 -69.598778 19.389940 101.819031
[Rope4_Seg01]
24 0.000010 0.000019 -0.000076 -103.028549 -40.219383 -101.153114 0.000079
25 0.000010 0.000018 -0.000073 -99.079926 -41.955189 -107.849808 0.000076
[Rope4_Seg02]
24 139.999985 0.000060 0.000119 -0.716309 5.595718 -2.024004 139.999985
25 139.999985 0.000060 0.000119 -0.477955 -2.110448 -5.412985 139.999985
[Rope4_Seg03]
24 139.999924 0.000000 -0.000238 0.222120 10.126368 2.543821 139.999924
25 139.999924 0.000000 -0.000238 -0.337078 0.421231 -1.992795 139.999924
[Rope4_Seg04]
24 139.999985 0.000000 0.000119 0.286884 -2.229501 -7.766161 139.999985
25 139.999985 0.000000 0.000119 -1.707613 -5.876833 -11.360641 139.999985
[Rope4_Seg05]
24 139.999802 -0.000060 -0.000119 0.159070 -11.697314 -13.398648 139.999802
25 139.999802 -0.000060 -0.000119 -3.526197 -6.947514 -12.201314 139.999802
[Rope4_Seg06]
24 139.999924 0.000000 0.000060 -0.940797 -3.948877 -5.277859 139.999924
25 139.999924 0.000000 0.000060 -2.052153 -2.043881 -4.474804 139.999924
[Rope4_Seg07]
24 139.999802 0.000000 0.000000 -0.796115 -2.347157 -3.331515 139.999802
25 139.999802 0.000000 0.000000 -1.420231 -1.141124 -2.784087 139.999802
[Rope4_Seg08]
24 139.999924 0.000000 0.000119 -2.121156 -1.376413 -2.016030 139.999924
25 139.999924 0.000000 0.000119 -2.462397 -0.637742 -1.666640 139.999924
[Rope4_Seg09]
24 90.185791 0.000060 0.000060 -135.617828 2.228885 0.850567 90.185791
25 90.185791 0.000060 0.000060 -135.617828 2.228885 0.850567 90.185791
[L_rear_hand01]
24 101.696655 -8.392275 -7.654577 -13.120160 -36.794415 108.245636 102.329041
25 101.696655 -8.392275 -7.654577 -12.874833 -36.868488 107.832779 102.329041
[L_rear_hand02]
24 102.726799 -1.568258 5.773216 71.814774 71.499886 158.834518 102.900848
25 102.726799 -1.568258 5.773216 71.484619 71.816628 158.486160 102.900848
[L_rear_hand03]
24 104.552910 9.721220 -10.420293 -177.558792 -24.551929 -106.459068 105.519653
25 104.552910 9.721220 -10.420293 -177.714203 -24.565960 -106.089035 105.519653
